<?xml version="1.0" encoding="UTF-8" standalone="no"?>
<!-- Created with Inkscape (http://www.inkscape.org/) -->

<svg
   width="630"
   height="500"
   viewBox="0 0 166.7 132.2"
   version="1.1"
   id="svg1"
   inkscape:version="1.4 (e7c3feb100, 2024-10-09)"
   sodipodi:docname="cover.svg"
   xml:space="preserve"
   inkscape:export-filename="cover.png"
   inkscape:export-xdpi="96"
   inkscape:export-ydpi="96"
   xmlns:inkscape="http://www.inkscape.org/namespaces/inkscape"
   xmlns:sodipodi="http://sodipodi.sourceforge.net/DTD/sodipodi-0.dtd"
   xmlns="http://www.w3.org/2000/svg"
   xmlns:svg="http://www.w3.org/2000/svg"><sodipodi:namedview
     id="namedview1"
     pagecolor="#333380"
     bordercolor="#666666"
     borderopacity="1.0"
     inkscape:showpageshadow="2"
     inkscape:pageopacity="0.0"
     inkscape:pagecheckerboard="0"
     inkscape:deskcolor="#d1d1d1"
     inkscape:document-units="mm"
     inkscape:export-bgcolor="#333380ff"
     inkscape:zoom="1.688"
     inkscape:cx="314.9"
     inkscape:cy="250"
     inkscape:window-width="1916"
     inkscape:window-height="1025"
     inkscape:window-x="1920"
     inkscape:window-y="0"
     inkscape:window-maximized="1"
     inkscape:current-layer="layer1"
     showgrid="false" /><defs
     id="defs1" /><g
     inkscape:label="Layer 1"
     inkscape:groupmode="layer"
     id="layer1"><text
       xml:space="preserve"
       style="font-style:normal;font-variant:normal;font-weight:normal;font-stretch:normal;font-size:21.1683px;line-height:1.25;font-family:Quicksand;-inkscape-font-specification:Quicksand;text-align:center;letter-spacing:0px;word-spacing:0px;text-anchor:middle;fill:#f9f9f9;stroke-width:0.2646"
       x="54.47"
       y="25.82"
       id="text1"><tspan
         sodipodi:role="line"
         id="tspan1"
         style="font-style:normal;font-variant:normal;font-weight:normal;font-stretch:normal;font-size:21.1683px;font-family:Quicksand;-inkscape-font-specification:Quicksand;fill:#f9f9f9;stroke-width:0.2646"
         x="54.47"
         y="25.82">Synthesis</tspan></text><path
       style="font-variation-settings:normal;opacity:1;fill:none;fill-opacity:1;stroke:#f9f9f9;stroke-width:1.0584;stroke-linecap:butt;stroke-linejoin:miter;stroke-miterlimit:4;stroke-dasharray:none;stroke-dashoffset:0;stroke-opacity:0.5403;stop-color:#000000;stop-opacity:1"
       d="M -0.6154,86.05 C -0.6154,86.05 2.448,115.1 6.681,115.1 C 10.91,115.1 13.72,88.73 18.07,88.73 C 22.41,88.73 24.12,104.8 28.49,104.8 C 32.86,104.8 35.6,82.61 40.39,82.61 C 45.19,82.61 49.23,91.17 54.12,91.06 C 59,90.94 59.4,95.86 66.06,95.92 C 72.72,95.98 72.6,88.16 77.45,88.16 C 82.29,88.16 83.8,97.03 88.54,97.28 C 93.28,97.53 95.2,89.68 99.44,89.68 C 103.7,89.68 105.8,95.4 112.1,95.4 C 118.4,95.4 120.6,103.6 124.6,103.6 C 128.6,103.6 132.2,81.82 137.4,81.46 C 142.6,81.09 144.1,97.28 148.1,97.28 C 152.1,97.28 155.4,70.82 159.2,70.82 C 163,70.82 167,100.3 167,100.3"
       id="path1"
       sodipodi:nodetypes="czzzzzzzzzzzzzzc" /><path
       style="font-variation-settings:normal;opacity:1;fill:none;fill-opacity:1;stroke:#f9f9f9;stroke-width:1.0584;stroke-linecap:butt;stroke-linejoin:miter;stroke-miterlimit:4;stroke-dasharray:none;stroke-dashoffset:0;stroke-opacity:1;stop-color:#000000;stop-opacity:1"
       d="M -0.6154,73.76 C -0.6154,73.76 2.448,44.8 6.681,44.8 C 10.91,44.8 13.72,71.08 18.07,71.08 C 22.41,71.08 24.12,55.1 28.49,55.1 C 32.86,55.1 35.6,77.2 40.39,77.2 C 45.19,77.2 49.23,68.64 54.12,68.75 C 59,68.87 59.4,63.95 66.06,63.89 C 72.72,63.83 72.6,71.65 77.45,71.65 C 82.29,71.65 83.8,62.78 88.54,62.53 C 93.28,62.28 95.2,70.13 99.44,70.13 C 103.7,70.13 105.8,64.41 112.1,64.41 C 118.4,64.41 120.6,56.3 124.6,56.3 C 128.6,56.3 132.2,77.99 137.4,78.39 C 142.6,78.69 144.1,62.53 148.1,62.53 C 152.1,62.53 155.4,88.99 159.2,88.99 C 163,88.99 167,59.5 167,59.5"
       id="path2"
       sodipodi:nodetypes="czzzzzzzzzzzzzzc" /></g></svg>
